<svg xmlns="http://www.w3.org/2000/svg" viewBox="0 0 512 512">
  <defs>
    <linearGradient id="bg" x1="0" y1="0" x2="1" y2="1">
      <stop offset="0%" stop-color="#f0abfc"/>
      <stop offset="55%" stop-color="#c084fc"/>
      <stop offset="100%" stop-color="#7c3aed"/>
    </linearGradient>
    <linearGradient id="bolt" x1="0" y1="0" x2="1" y2="1">
      <stop offset="0%" stop-color="#0e1117"/>
      <stop offset="100%" stop-color="#1e2436"/>
    </linearGradient>
  </defs>
  <rect width="512" height="512" rx="112" fill="url(#bg)"/>
  <path d="M158 130h100c44 0 76 30 76 72 0 34-20 58-50 68l58 92h-58l-50-84h-40v84h-56V130zm56 48v56h40c22 0 36-12 36-28s-14-28-36-28h-40z" fill="url(#bolt)"/>
  <path d="M300 128l52 34-26 4 42 66-30 20-42-66-16 24z" fill="url(#bolt)" opacity=".85"/>
</svg>
